<svg id="Layer_1" data-name="Layer 1" xmlns="http://www.w3.org/2000/svg" viewBox="0 0 43.26 44.96"><defs><style>.cls-1{fill:#ed1c2e;}</style></defs><title>dsr</title><path class="cls-1" d="M25.58,21.05l3.34,1.84L37.76,4.74l-4.82,1.6S25.58,0,18.12,4.28s-5.86,13.09-5.86,13.09L26.92,30.31,20.34,38.2,18.5,36.71,16.43,39l4,3.44L31,30.16l-5.44-4.75ZM25,14l1.84-2.68L22.1,12.55l.61,10.11-7.66-6.9a8.64,8.64,0,0,1,5.67-9.11C27.31,4.2,31.9,9.56,31.9,9.56l-4.36,9.65-2.15-1Z"/><rect class="cls-1" x="11.22" y="21.93" width="2.68" height="2.66" transform="translate(18.85 -2.42) rotate(42.14)"/><rect class="cls-1" x="14.32" y="25.29" width="2.68" height="5.81" transform="translate(22.96 -3.22) rotate(42.14)"/><rect class="cls-1" x="18.05" y="28.9" width="2.68" height="7.09" transform="translate(26.78 -4.62) rotate(42.14)"/></svg>