<svg id="Layer_1" data-name="Layer 1" xmlns="http://www.w3.org/2000/svg" width="29.7668" height="45" xmlns:xlink="http://www.w3.org/1999/xlink" viewBox="0 0 29.77 45"><defs><style>.cls-1{fill:url(#linear-gradient);}.cls-2{fill:url(#linear-gradient-2);}.cls-3{fill:url(#linear-gradient-3);}</style><linearGradient id="linear-gradient" x1="-197.93" y1="192.9" x2="-197.93" y2="148.03" gradientTransform="translate(208.67 -148.21)" gradientUnits="userSpaceOnUse"><stop offset="0" stop-color="#1b447e"/><stop offset="1" stop-color="#0a9fda"/></linearGradient><linearGradient id="linear-gradient-2" x1="19.73" y1="30.29" x2="10.62" y2="36.13" gradientUnits="userSpaceOnUse"><stop offset="0.16" stop-color="#0d1e32" stop-opacity="0"/><stop offset="0.27" stop-color="#0d1e32" stop-opacity="0.18"/><stop offset="0.51" stop-color="#0d1e32" stop-opacity="0.5"/><stop offset="0.93" stop-color="#0d1e32" stop-opacity="0"/></linearGradient><linearGradient id="linear-gradient-3" x1="37.89" y1="184.17" x2="16.46" y2="155.77" gradientTransform="translate(-10.58 -148)" gradientUnits="userSpaceOnUse"><stop offset="0" stop-color="#1b447e"/><stop offset="0.15" stop-color="#236a9f"/><stop offset="0.3" stop-color="#3489ba"/><stop offset="0.46" stop-color="#3fa2ce"/><stop offset="0.62" stop-color="#4ab3dd"/><stop offset="0.79" stop-color="#50bee6"/><stop offset="1" stop-color="#53c1e9"/></linearGradient></defs><polygon class="cls-1" points="14.87 24.07 14.88 15.1 21.47 26.41 10.67 45 0 26.41 14.88 0 14.87 9.17 5.23 26.41 10.69 35.98 16.24 26.41 14.87 24.07"/><polygon class="cls-2" points="10.69 35.98 13.56 40.02 18.81 30.99 15.94 26.94 10.69 35.98"/><polygon class="cls-3" points="14.87 24.07 14.88 15.1 8.3 26.41 19.1 45 29.77 26.41 14.88 0 14.87 9.17 24.54 26.41 19.07 35.98 13.53 26.41 14.87 24.07"/></svg>
