<svg xmlns="http://www.w3.org/2000/svg" viewBox="0 0 108.34 158.58"><defs><style>.cls-1{fill:#ed1c2e;}</style></defs><title>Asset 1</title><g id="Layer_2" data-name="Layer 2"><g id="Layer_1-2" data-name="Layer 1"><path class="cls-1" d="M59.64,73,73,80.32l35.38-72.6L89.05,14.15S59.64-11.12,29.77,5.88,6.34,58.26,6.34,58.26L65,110,38.65,141.58l-7.35-6L23,144.8l16.08,13.78,42.28-49.16-21.75-19Zm-2.3-28.19,7.35-10.72L45.7,39,48.15,79.4,17.52,51.83S13.84,25.18,40.19,15.38,84.91,27,84.91,27L67.45,65.61l-8.58-4Z"/><rect class="cls-1" x="2.18" y="76.48" width="10.72" height="10.63" transform="translate(56.83 16.08) rotate(42.14)"/><rect class="cls-1" x="14.59" y="89.94" width="10.72" height="23.22" transform="translate(73.29 12.86) rotate(42.14)"/><rect class="cls-1" x="29.5" y="104.36" width="10.72" height="28.36" transform="translate(88.55 7.25) rotate(42.14)"/></g></g></svg>