<!-- Generator: Adobe Illustrator 23.0.4, SVG Export Plug-In  -->
<svg version="1.1" xmlns="http://www.w3.org/2000/svg" xmlns:xlink="http://www.w3.org/1999/xlink" x="0px" y="0px"
	 width="226.76px" height="112.33px" viewBox="0 0 226.76 112.33" style="enable-background:new 0 0 226.76 112.33;"
	 xml:space="preserve">
<style type="text/css">
	.st0{opacity:0.4;}
	.st1{fill:#FFFFFF;}
</style>
<defs>
</defs>
<g>
	<circle class="st0" cx="112.38" cy="75.29" r="37.04"/>
	<polygon class="st1" points="105.53,91.33 127.23,74.29 105.53,57.26 	"/>
</g>
<g>
	<path class="st1" d="M9.89,19.46C4.03,19.46,0,15.35,0,9.79V9.73C0,4.38,4.17,0,9.87,0c3.39,0,5.43,0.91,7.39,2.58l-2.61,3.15
		c-1.45-1.21-2.74-1.91-4.92-1.91c-3.01,0-5.4,2.66-5.4,5.86v0.05c0,3.44,2.37,5.97,5.7,5.97c1.51,0,2.85-0.38,3.9-1.13v-2.69H9.76
		V8.31h8.17v8.17C16,18.12,13.34,19.46,9.89,19.46z"/>
	<path class="st1" d="M20.3,19.14V0.32h14.2v3.68H24.41v3.82h8.87v3.68h-8.87v3.95h10.22v3.68H20.3z"/>
	<path class="st1" d="M45.22,4.14v15h-4.14v-15h-5.73V0.32h15.59v3.82H45.22z"/>
	<path class="st1" d="M67.48,4.14v15h-4.14v-15h-5.73V0.32H73.2v3.82H67.48z"/>
	<path class="st1" d="M83.1,19.46c-5.81,0-9.97-4.33-9.97-9.68V9.73C73.12,4.38,77.34,0,83.15,0c5.81,0,9.97,4.33,9.97,9.68v0.05
		C93.12,15.08,88.9,19.46,83.1,19.46z M88.8,9.73c0-3.23-2.37-5.92-5.7-5.92s-5.65,2.63-5.65,5.86v0.05c0,3.23,2.37,5.92,5.7,5.92
		s5.65-2.63,5.65-5.86V9.73z"/>
	<path class="st1" d="M113.8,19.14l-5.83-8.01l-2.18,2.26v5.75h-4.14V0.32h4.14v8.23l7.64-8.23h5l-7.66,7.99l8.01,10.83H113.8z"/>
	<path class="st1" d="M132.86,19.14l-9.11-11.96v11.96h-4.09V0.32h3.82l8.82,11.59V0.32h4.09v18.82H132.86z"/>
	<path class="st1" d="M148.42,19.46c-5.81,0-9.97-4.33-9.97-9.68V9.73c0-5.35,4.22-9.73,10.03-9.73c5.81,0,9.97,4.33,9.97,9.68v0.05
		C158.45,15.08,154.23,19.46,148.42,19.46z M154.12,9.73c0-3.23-2.37-5.92-5.7-5.92s-5.65,2.63-5.65,5.86v0.05
		c0,3.23,2.37,5.92,5.7,5.92s5.65-2.63,5.65-5.86V9.73z"/>
	<path class="st1" d="M180.12,19.28h-3.6l-4.25-12.31l-4.25,12.31h-3.6l-6.43-18.96h4.44l3.9,12.74l4.22-12.8h3.55l4.22,12.8
		l3.9-12.74h4.33L180.12,19.28z"/>
	<path class="st1" d="M202.29,19.44c-5.05,0-8.15-2.82-8.15-8.36V0.32h4.14v10.65c0,3.06,1.53,4.65,4.06,4.65s4.06-1.53,4.06-4.52
		V0.32h4.14v10.62C210.55,16.64,207.35,19.44,202.29,19.44z"/>
	<path class="st1" d="M219.85,19.41c-2.85,0-5.73-0.99-7.99-3.01l2.45-2.93c1.69,1.4,3.47,2.29,5.62,2.29
		c1.69,0,2.72-0.67,2.72-1.77v-0.05c0-1.05-0.65-1.59-3.79-2.39c-3.79-0.97-6.24-2.02-6.24-5.75V5.73c0-3.42,2.74-5.67,6.59-5.67
		c2.74,0,5.08,0.86,6.99,2.39l-2.15,3.12c-1.67-1.16-3.31-1.86-4.89-1.86s-2.42,0.73-2.42,1.64V5.4c0,1.24,0.81,1.64,4.06,2.47
		c3.82,1,5.97,2.37,5.97,5.65v0.05C226.76,17.31,223.91,19.41,219.85,19.41z"/>
</g>
</svg>
