<?xml version="1.0" encoding="utf-8"?>
<!-- Generator: Adobe Illustrator 23.0.5, SVG Export Plug-In . SVG Version: 6.00 Build 0)  -->
<svg version="1.1" id="Layer_1" xmlns="http://www.w3.org/2000/svg" xmlns:xlink="http://www.w3.org/1999/xlink" x="0px" y="0px"
	 viewBox="0 0 185.8 193.1" style="enable-background:new 0 0 185.8 193.1;" xml:space="preserve">
<style type="text/css">
	.st0{opacity:0.34;}
	.st1{fill:#B5B5B5;}
</style>
<g class="st0">
	<path class="st1" d="M99.2,89.2l15.5,8.6L156,13.1l-22.5,7.5c0,0-34.3-29.4-69.1-9.6S37.1,72,37.1,72l68.4,60.3l-30.7,36.8l-8.6-7
		l-9.6,10.7l18.7,16.1l49.3-57.3l-25.3-22.1V89.2H99.2z M96.6,56.3l8.6-12.5L83,49.5l2.9,47.1L50.2,64.5c0,0-4.3-31.1,26.4-42.5
		s52.1,13.6,52.1,13.6l-20.3,45l-10-4.6L96.6,56.3z"/>
	
		<rect x="32.3" y="93.2" transform="matrix(0.671 -0.7415 0.7415 0.671 -61.1048 61.2943)" class="st1" width="12.4" height="12.5"/>
	
		<rect x="39.5" y="116.2" transform="matrix(0.671 -0.7415 0.7415 0.671 -73.373 79.6364)" class="st1" width="27.1" height="12.5"/>
	<rect x="53.8" y="136" transform="matrix(0.671 -0.7415 0.7415 0.671 -82.3191 98.9776)" class="st1" width="33.1" height="12.5"/>
</g>
</svg>
